<svg xmlns="http://www.w3.org/2000/svg" height="50pt" version="1.1" viewBox="0 -52 511.99976 511" width="50pt">
<g id="surface1">
<path d="M 500.667969 242.179688 L 500.667969 395.929688 L 451.839844 395.929688 L 464.941406 242.179688 Z M 500.667969 242.179688 " style=" stroke:none;fill-rule:nonzero;fill:rgb(46.666667%,96.862745%,66.666667%);fill-opacity:1;" />
<path d="M 500.667969 225.984375 L 500.667969 242.179688 L 440.765625 242.179688 L 440.167969 51.628906 L 500.667969 12.449219 Z M 500.667969 225.984375 " style=" stroke:none;fill-rule:nonzero;fill:rgb(87.058824%,100%,90.980392%);fill-opacity:1;" />
<path d="M 256.050781 83.667969 C 336.4375 83.667969 401.464844 148.8125 401.464844 229.082031 C 401.464844 309.351562 336.441406 374.613281 256.050781 374.613281 C 175.664062 374.613281 110.636719 309.46875 110.636719 229.199219 C 110.636719 148.8125 175.664062 83.667969 256.050781 83.667969 Z M 351.921875 229.199219 C 351.921875 176.324219 309.046875 133.449219 256.050781 133.449219 C 203.171875 133.449219 160.300781 176.324219 160.300781 229.320312 C 160.300781 282.195312 203.171875 325.070312 256.050781 325.070312 C 308.929688 324.949219 351.800781 282.078125 351.921875 229.199219 Z M 351.921875 229.199219 " style=" stroke:none;fill-rule:nonzero;fill:rgb(87.058824%,100%,90.980392%);fill-opacity:1;" />
<path d="M 256.050781 133.328125 C 308.929688 133.328125 351.800781 176.203125 351.800781 229.082031 C 351.800781 281.957031 308.929688 324.832031 256.050781 324.832031 C 203.171875 324.832031 160.300781 281.957031 160.300781 229.082031 C 160.300781 176.203125 203.171875 133.328125 256.050781 133.328125 Z M 256.050781 133.328125 " style=" stroke:none;fill-rule:nonzero;fill:rgb(46.666667%,96.862745%,66.666667%);fill-opacity:1;" />
<path d="M 46.445312 158.816406 C 27.035156 158.457031 11.554688 142.738281 11.433594 123.324219 L 11.433594 93.195312 L 82.414062 93.195312 L 82.414062 123.324219 C 82.292969 142.855469 66.453125 158.695312 46.925781 158.816406 C 46.804688 158.816406 46.6875 158.816406 46.445312 158.816406 Z M 46.445312 158.816406 " style=" stroke:none;fill-rule:nonzero;fill:rgb(46.666667%,96.862745%,66.666667%);fill-opacity:1;" />
<path d="M 256.050781 71.757812 C 169.234375 71.757812 98.730469 142.382812 98.730469 229.082031 C 98.730469 315.78125 169.234375 386.523438 256.050781 386.523438 C 342.871094 386.523438 413.375 315.898438 413.375 229.199219 C 413.375 142.5 342.871094 71.757812 256.050781 71.757812 Z M 256.050781 362.703125 C 182.332031 362.703125 122.546875 302.917969 122.546875 229.199219 C 122.546875 155.480469 182.332031 95.578125 256.050781 95.578125 C 329.769531 95.578125 389.554688 155.363281 389.554688 229.199219 C 389.554688 302.917969 329.769531 362.585938 256.050781 362.703125 Z M 256.050781 362.703125 " style=" stroke:none;fill-rule:nonzero;fill:rgb(14.117647%,70.196078%,38.039216%);fill-opacity:1;" />
<path d="M 256.050781 121.417969 C 196.503906 121.417969 148.390625 169.652344 148.390625 229.199219 C 148.390625 288.746094 196.625 336.859375 256.171875 336.859375 C 315.714844 336.859375 363.832031 288.625 363.832031 229.199219 C 363.710938 169.652344 315.480469 121.539062 256.050781 121.417969 Z M 256.050781 313.042969 C 209.722656 313.042969 172.210938 275.527344 172.210938 229.082031 C 172.210938 182.632812 209.722656 145.238281 256.050781 145.238281 C 302.378906 145.238281 339.894531 182.753906 339.894531 229.082031 C 339.894531 275.527344 302.378906 313.042969 256.050781 313.042969 Z M 256.050781 313.042969 " style=" stroke:none;fill-rule:nonzero;fill:rgb(14.117647%,70.196078%,38.039216%);fill-opacity:1;" />
<path d="M 82.175781 14.832031 C 75.625 14.832031 70.265625 20.191406 70.265625 26.742188 L 70.265625 81.523438 L 58.832031 81.523438 L 58.355469 26.742188 C 58.355469 20.191406 52.878906 14.832031 46.328125 14.953125 C 39.777344 14.953125 34.417969 20.429688 34.539062 26.980469 L 34.894531 81.644531 L 23.820312 81.644531 L 23.820312 26.859375 C 23.820312 20.308594 18.460938 14.949219 11.910156 14.949219 C 5.359375 14.949219 0 20.308594 0 26.859375 L 0 91.410156 C 0 91.765625 0 92.121094 0 92.480469 C 0 92.835938 0 93.195312 0 93.550781 L 0 123.683594 C -0.117188 145 14.171875 163.816406 34.65625 169.414062 L 35.132812 395.929688 L 58.953125 395.929688 L 58.355469 169.414062 C 79.4375 164.175781 94.203125 145.121094 94.203125 123.445312 L 94.203125 93.3125 C 94.203125 92.957031 94.203125 92.601562 94.203125 92.242188 C 94.203125 91.886719 94.203125 91.527344 94.203125 91.171875 L 94.203125 26.742188 C 94.085938 20.070312 88.726562 14.832031 82.175781 14.832031 Z M 70.265625 123.324219 C 70.265625 136.304688 59.902344 146.90625 46.921875 146.90625 C 46.804688 146.90625 46.683594 146.90625 46.566406 146.90625 C 40.492188 146.789062 34.777344 144.285156 30.488281 140 C 26.082031 135.59375 23.699219 129.636719 23.820312 123.324219 L 23.820312 105.34375 L 70.265625 105.34375 Z M 70.265625 123.324219 " style=" stroke:none;fill-rule:nonzero;fill:rgb(14.117647%,70.196078%,38.039216%);fill-opacity:1;" />
<path d="M 506.148438 1.96875 C 502.335938 -0.175781 497.691406 0.0625 494.121094 2.445312 L 433.738281 41.507812 C 430.40625 43.769531 428.261719 47.464844 428.378906 51.511719 L 428.738281 242.300781 C 428.738281 248.851562 434.097656 254.210938 440.648438 254.210938 L 451.839844 254.210938 L 439.8125 394.980469 C 439.21875 401.527344 444.101562 407.246094 450.652344 407.839844 C 451.007812 407.839844 451.363281 407.839844 451.722656 407.839844 L 500.550781 407.839844 C 506.980469 407.839844 512.101562 402.601562 511.984375 396.171875 C 511.984375 396.050781 511.984375 395.933594 511.984375 395.933594 L 511.984375 12.449219 C 512.222656 8.160156 509.839844 4.113281 506.148438 1.96875 Z M 464.703125 384.019531 L 475.777344 254.210938 L 488.285156 254.210938 L 488.285156 384.019531 Z M 488.285156 230.390625 L 452.554688 230.390625 L 451.839844 58.0625 L 488.164062 34.363281 L 488.164062 230.390625 Z M 488.285156 230.390625 " style=" stroke:none;fill-rule:nonzero;fill:rgb(14.117647%,70.196078%,38.039216%);fill-opacity:1;" />
</g>
</svg>